# Blender v2.78 (sub 0) OBJ File: 'BAUM.blend'
# www.blender.org
mtllib grass.mtl
v -0.007905 -0.020697 0.021656
v 0.034871 0.171323 0.072486
v 0.063883 -0.025447 0.032120
v 0.084278 0.161588 0.070315
v -0.000820 -0.027661 0.093676
v 0.031555 0.159768 0.122966
v 0.116693 0.304244 0.122608
v 0.078401 0.315796 0.129141
v 0.078876 0.300923 0.164486
v 0.141329 0.431147 0.201377
v -0.000232 -0.022078 -0.007035
v 0.040350 0.167552 -0.025125
v 0.033505 -0.022078 -0.068013
v 0.055840 0.160571 -0.070354
v 0.067154 -0.022078 0.010729
v 0.085487 0.160773 -0.005353
v 0.099181 0.302750 -0.079474
v 0.091111 0.312404 -0.042720
v 0.124320 0.301333 -0.031499
v 0.165146 0.431831 -0.072963
v -0.192645 0.000000 0.024516
v -0.153233 0.168610 0.027250
v -0.140709 0.000000 -0.009280
v -0.122196 0.162403 -0.001797
v -0.147152 0.000000 0.066586
v -0.126047 0.162583 0.061610
v -0.084362 0.288822 0.009131
v -0.106036 0.297406 0.034619
v -0.084646 0.287562 0.057289
v -0.035288 0.403595 0.041772
v -0.140565 0.002936 -0.104025
v -0.075519 0.122926 -0.095731
v -0.096959 -0.009265 -0.122557
v -0.049522 0.110579 -0.113682
v -0.112613 -0.005023 -0.064667
v -0.061421 0.113939 -0.065072
v 0.004164 0.199141 -0.099352
v -0.013827 0.211191 -0.082771
v -0.003200 0.200076 -0.062045
v 0.060650 0.277314 -0.066542
vn 0.0920 0.2131 -0.9727
vn 0.6838 -0.2216 0.6952
vn -0.9569 0.2851 0.0561
vn -0.9816 0.1822 0.0577
vn -0.0525 -0.9945 -0.0910
vn -0.9062 0.3852 0.1743
vn 0.6739 -0.3956 0.6240
vn -0.0063 0.3562 -0.9344
vn 0.6692 -0.4813 0.5661
vn 0.0134 0.5255 -0.8507
vn -0.8965 0.1283 -0.4240
vn 0.9085 -0.1212 -0.3999
vn -0.3098 0.2383 0.9204
vn -0.3062 0.1349 0.9423
vn 0.0000 -1.0000 0.0000
vn -0.1925 0.3513 0.9162
vn 0.8567 -0.3012 -0.4187
vn -0.9099 0.2689 -0.3160
vn 0.8101 -0.3920 -0.4361
vn -0.8426 0.4458 -0.3021
vn -0.5927 0.1283 -0.7952
vn 0.9899 -0.1212 0.0733
vn -0.7056 0.2383 0.6673
vn -0.7127 0.1349 0.6884
vn -0.6000 0.3513 0.7187
vn 0.9530 -0.3012 0.0324
vn -0.6551 0.2689 -0.7061
vn 0.9200 -0.3920 -0.0048
vn -0.6022 0.4458 -0.6622
vn -0.3818 0.2429 -0.8918
vn 0.8899 -0.3767 0.2571
vn -0.7235 0.4494 0.5240
vn -0.7620 0.3528 0.5430
vn -0.2705 -0.9627 -0.0026
vn -0.6024 0.5326 0.5945
vn 0.8138 -0.5421 0.2095
vn -0.4189 0.3992 -0.8156
vn 0.7647 -0.6225 0.1665
vn -0.3290 0.5576 -0.7622
usemtl grass
s off
f 1//1 2//1 4//1 3//1
f 3//2 4//2 6//2 5//2
f 2//3 6//3 9//3 8//3
f 5//4 6//4 2//4 1//4
f 1//5 3//5 5//5
f 8//6 9//6 10//6
f 6//7 4//7 7//7 9//7
f 4//8 2//8 8//8 7//8
f 9//9 7//9 10//9
f 7//10 8//10 10//10
f 11//11 12//11 14//11 13//11
f 13//12 14//12 16//12 15//12
f 12//13 16//13 19//13 18//13
f 15//14 16//14 12//14 11//14
f 11//15 13//15 15//15
f 18//16 19//16 20//16
f 16//17 14//17 17//17 19//17
f 14//18 12//18 18//18 17//18
f 19//19 17//19 20//19
f 17//20 18//20 20//20
f 21//21 22//21 24//21 23//21
f 23//22 24//22 26//22 25//22
f 22//23 26//23 29//23 28//23
f 25//24 26//24 22//24 21//24
f 21//15 23//15 25//15
f 28//25 29//25 30//25
f 26//26 24//26 27//26 29//26
f 24//27 22//27 28//27 27//27
f 29//28 27//28 30//28
f 27//29 28//29 30//29
f 31//30 32//30 34//30 33//30
f 33//31 34//31 36//31 35//31
f 32//32 36//32 39//32 38//32
f 35//33 36//33 32//33 31//33
f 31//34 33//34 35//34
f 38//35 39//35 40//35
f 36//36 34//36 37//36 39//36
f 34//37 32//37 38//37 37//37
f 39//38 37//38 40//38
f 37//39 38//39 40//39
