# Blender v2.78 (sub 0) OBJ File: 'BAUM.blend'
# www.blender.org
mtllib gravel.mtl
v -0.040697 0.000482 -0.102228
v -0.023717 -0.000851 -0.036849
v -0.118630 -0.001359 -0.058754
v -0.076533 0.078416 -0.117351
v -0.042493 0.078409 -0.033427
v -0.135511 0.057354 -0.029900
v -0.100240 0.001324 0.203971
v -0.037059 0.004690 0.180276
v -0.092807 0.084067 0.171332
v -0.153180 0.002875 0.134822
v -0.067856 -0.004384 0.105339
v -0.094202 0.087332 0.103863
v 0.135789 0.058892 -0.030814
v 0.189408 0.095776 -0.048958
v 0.167395 0.018312 -0.103761
v 0.166290 -0.017574 -0.002366
v 0.236567 0.037806 -0.016375
v 0.223834 -0.017307 -0.093242
v 0.016225 -0.005396 0.117273
v -0.024780 0.023012 0.071709
v 0.058542 -0.015713 0.039365
v 0.086552 0.045655 0.123147
v 0.025092 0.087502 0.071441
v 0.086925 0.040845 0.015692
v -0.132270 0.000482 -0.358761
v -0.198417 -0.000851 -0.345075
v -0.171788 -0.001359 -0.438772
v -0.115371 0.078416 -0.393794
v -0.200895 0.078409 -0.363999
v -0.199760 0.057354 -0.457077
v -0.435103 0.001324 -0.433558
v -0.414601 0.004690 -0.369270
v -0.402878 0.084067 -0.424501
v -0.363391 0.002875 -0.482970
v -0.338217 -0.004384 -0.396277
v -0.335424 0.087332 -0.422516
v -0.212430 0.058892 -0.186071
v -0.196993 0.095776 -0.131611
v -0.141157 0.018312 -0.150853
v -0.242370 -0.017574 -0.157032
v -0.231896 0.037806 -0.086142
v -0.154488 -0.017307 -0.095011
v -0.354346 -0.005396 -0.312899
v -0.306786 0.023012 -0.351572
v -0.278654 -0.015713 -0.266734
v -0.363733 0.045655 -0.242954
v -0.309015 0.087502 -0.301748
v -0.256432 0.040845 -0.237202
v 0.165752 0.000482 -0.513886
v 0.170610 -0.000851 -0.446512
v 0.081235 -0.001359 -0.485245
v 0.133249 0.078416 -0.535249
v 0.151525 0.078409 -0.446548
v 0.059407 0.057354 -0.459926
v 0.051738 0.001324 -0.223535
v 0.118165 0.004690 -0.235395
v 0.064959 0.084067 -0.254287
v 0.012197 0.002875 -0.301128
v 0.101449 -0.004384 -0.314670
v 0.075807 0.087332 -0.320893
v 0.326386 0.058892 -0.411688
v 0.382404 0.095776 -0.419821
v 0.370681 0.018312 -0.477704
v 0.351231 -0.017574 -0.378186
v 0.422883 0.037806 -0.379236
v 0.424282 -0.017307 -0.457138
v 0.181978 -0.005396 -0.287705
v 0.149904 0.023012 -0.339942
v 0.237706 -0.015713 -0.356660
v 0.250079 0.045655 -0.269191
v 0.199000 0.087502 -0.331173
v 0.269907 0.040845 -0.374801
v 0.305850 0.000482 0.026708
v 0.373130 -0.000851 0.020692
v 0.335939 -0.001359 0.110720
v 0.285048 0.078416 0.059574
v 0.373423 0.078409 0.039775
v 0.361630 0.057354 0.132110
v 0.598118 0.001324 0.135714
v 0.585118 0.004690 0.069500
v 0.567143 0.084067 0.123023
v 0.521216 0.002875 0.176582
v 0.506142 -0.004384 0.087576
v 0.500360 0.087332 0.113322
v 0.405271 0.058892 -0.135659
v 0.396176 0.095776 -0.191529
v 0.338503 0.018312 -0.178812
v 0.438340 -0.017574 -0.161076
v 0.436059 0.037806 -0.232699
v 0.358145 -0.017307 -0.232759
v 0.531718 -0.005396 0.006596
v 0.480040 0.023012 0.039564
v 0.461815 -0.015713 -0.047939
v 0.549059 0.045655 -0.061813
v 0.487964 0.087502 -0.009676
v 0.443123 0.040845 -0.079823
v -0.461649 0.000482 0.145393
v -0.394369 -0.000851 0.139378
v -0.431559 -0.001359 0.229406
v -0.482450 0.078416 0.178259
v -0.394076 0.078409 0.158461
v -0.405869 0.057354 0.250795
v -0.169381 0.001324 0.254399
v -0.182381 0.004690 0.188186
v -0.200356 0.084067 0.241709
v -0.246283 0.002875 0.295268
v -0.261357 -0.004384 0.206262
v -0.267139 0.087332 0.232007
v -0.362228 0.058892 -0.016974
v -0.371323 0.095776 -0.072844
v -0.428996 0.018312 -0.060127
v -0.329158 -0.017574 -0.042391
v -0.331439 0.037806 -0.114014
v -0.409354 -0.017307 -0.114073
v -0.235780 -0.005396 0.125281
v -0.287458 0.023012 0.158249
v -0.305684 -0.015713 0.070747
v -0.218440 0.045655 0.056873
v -0.279535 0.087502 0.109009
v -0.324376 0.040845 0.038863
v 0.196978 0.000482 0.450409
v 0.185150 -0.000851 0.383905
v 0.278064 -0.001359 0.413146
v 0.231525 0.078416 0.468282
v 0.204135 0.078409 0.381958
v 0.297145 0.057354 0.385697
v 0.280222 0.001324 0.149788
v 0.215386 0.004690 0.168482
v 0.270267 0.084067 0.181747
v 0.327608 0.002875 0.222855
v 0.240245 -0.004384 0.245593
v 0.266395 0.087332 0.249120
v 0.026600 0.058892 0.365447
v -0.028271 0.095776 0.379354
v -0.010600 0.018312 0.435706
v -0.001590 -0.017574 0.334706
v -0.072745 0.037806 0.343191
v -0.066046 -0.017307 0.420817
v 0.157351 -0.005396 0.227137
v 0.194677 0.023012 0.275760
v 0.109085 -0.015713 0.301507
v 0.087696 0.045655 0.215795
v 0.144935 0.087502 0.272138
v 0.078943 0.040845 0.322894
vn 0.0107 -0.9997 -0.0232
vn -0.4471 -0.3641 -0.8170
vn 0.9423 0.2336 -0.2400
vn -0.2234 -0.0948 0.9701
vn 0.1266 -0.4079 0.9042
vn -0.8323 0.0327 -0.5534
vn 0.8738 0.3330 -0.3544
vn -0.2167 0.9723 0.0880
vn 0.3172 0.3232 0.8916
vn -0.7546 0.2983 0.5844
vn 0.0849 -0.9927 0.0853
vn 0.7765 0.5026 -0.3800
vn 0.9611 0.2760 -0.0065
vn -0.8112 0.5830 0.0450
vn -0.0732 -0.9968 0.0337
vn -0.3330 -0.1107 -0.9364
vn -0.5873 0.5720 -0.5726
vn -0.8959 -0.4157 -0.1569
vn -0.0272 0.4729 0.8807
vn 0.7342 0.2405 -0.6349
vn 0.5157 0.6535 -0.5540
vn -0.4687 -0.8311 -0.2993
vn -0.0674 0.3242 0.9436
vn 0.6168 -0.6845 0.3886
vn -0.4598 -0.8779 -0.1335
vn 0.5212 -0.7622 0.3840
vn -0.5325 0.4148 0.7378
vn -0.2700 0.2049 -0.9408
vn -0.6618 0.0184 -0.7494
vn 0.8973 -0.4408 0.0228
vn -0.3855 0.4376 0.8124
vn 0.5821 0.8124 -0.0343
vn 0.0226 -0.9997 0.0118
vn 0.8383 -0.3641 -0.4057
vn 0.1925 0.2336 0.9531
vn -0.9577 -0.0948 -0.2717
vn -0.9094 -0.4079 0.0812
vn 0.5944 0.0327 -0.8035
vn 0.3102 0.3330 0.8904
vn -0.0770 0.9723 -0.2209
vn -0.9064 0.3232 0.2721
vn -0.5459 0.2983 -0.7829
vn -0.0895 -0.9927 0.0805
vn 0.3406 0.5026 0.7946
vn -0.0416 0.2760 0.9603
vn -0.0043 0.5830 -0.8125
vn -0.0300 -0.9968 -0.0748
vn 0.9519 -0.1107 -0.2857
vn 0.6013 0.5720 -0.5579
vn 0.2015 -0.4157 -0.8869
vn -0.8782 0.4729 -0.0713
vn 0.5973 0.2405 0.7651
vn 0.5275 0.6535 0.5428
vn 0.3223 -0.8311 -0.4532
vn -0.9390 0.3242 -0.1145
vn -0.4190 -0.6845 0.5966
vn 0.1564 -0.8779 -0.4526
vn -0.4096 -0.7622 0.5013
vn -0.7102 0.4148 -0.5687
vn 0.9532 0.2049 -0.2225
vn 0.7816 0.0184 -0.6235
vn -0.0677 -0.4408 0.8951
vn -0.7920 0.4376 -0.4257
vn 0.0052 0.8124 0.5831
vn 0.0147 -0.9997 -0.0208
vn -0.2918 -0.3641 -0.8845
vn 0.9701 0.2336 -0.0653
vn -0.3954 -0.0948 0.9136
vn -0.0392 -0.4079 0.9122
vn -0.7183 0.0327 -0.6950
vn 0.9235 0.3330 -0.1903
vn -0.2291 0.9723 0.0473
vn 0.1504 0.3232 0.9343
vn -0.8480 0.2983 0.4381
vn 0.0680 -0.9927 0.0993
vn 0.8325 0.5026 -0.2331
vn 0.9464 0.2760 0.1677
vn -0.8060 0.5830 -0.1027
vn -0.0781 -0.9968 0.0198
vn -0.1579 -0.1107 -0.9812
vn -0.4738 0.5720 -0.6695
vn -0.8526 -0.4157 -0.3165
vn -0.1863 0.4729 0.8612
vn 0.8371 0.2405 -0.4914
vn 0.6075 0.6535 -0.4514
vn -0.4068 -0.8311 -0.3792
vn -0.2371 0.3242 0.9158
vn 0.5363 -0.6845 0.4939
vn -0.4281 -0.8779 -0.2146
vn 0.4430 -0.7622 0.4721
vn -0.6573 0.4148 0.6292
vn -0.0951 0.2049 -0.9742
vn -0.5151 0.0184 -0.8569
vn 0.8784 -0.4408 0.1850
vn -0.5262 0.4376 0.7291
vn 0.5787 0.8124 0.0716
vn -0.0211 -0.9997 -0.0144
vn -0.8793 -0.3641 0.3070
vn -0.0820 0.2336 -0.9689
vn 0.9203 -0.0948 0.3796
vn 0.9127 -0.4079 0.0235
vn -0.6825 0.0327 0.7301
vn -0.2061 0.3330 -0.9201
vn 0.0512 0.9723 0.2282
vn 0.9316 0.3232 -0.1665
vn 0.4526 0.2983 0.8403
vn 0.0981 -0.9927 -0.0697
vn -0.2473 0.5026 -0.8284
vn 0.1514 0.2760 -0.9492
vn -0.0888 0.5830 0.8076
vn 0.0212 -0.9968 0.0777
vn -0.9784 -0.1107 0.1747
vn -0.6613 0.5720 0.4853
vn -0.3018 -0.4157 0.8579
vn 0.8643 0.4729 0.1715
vn -0.5057 0.2405 -0.8285
vn -0.4618 0.6535 -0.5997
vn -0.3722 -0.8311 0.4133
vn 0.9197 0.3242 0.2214
vn 0.4846 -0.6845 -0.5447
vn -0.2072 -0.8779 0.4317
vn 0.4644 -0.7622 -0.4511
vn 0.6404 0.4148 0.6464
vn -0.9724 0.2049 0.1119
vn -0.8479 0.0184 0.5298
vn 0.1699 -0.4408 -0.8814
vn 0.7380 0.4376 0.5136
vn 0.0617 0.8124 -0.5798
vn -0.0125 -0.9997 0.0223
vn 0.3821 -0.3641 0.8494
vn -0.9581 0.2336 0.1657
vn 0.2984 -0.0948 -0.9497
vn -0.0557 -0.4079 -0.9113
vn 0.7866 0.0327 0.6166
vn -0.8988 0.3330 0.2851
vn 0.2229 0.9723 -0.0708
vn -0.2466 0.3232 -0.9136
vn 0.7979 0.2983 -0.5238
vn -0.0780 -0.9927 -0.0917
vn -0.8038 0.5026 0.3183
vn -0.9587 0.2760 -0.0685
vn 0.8123 0.5830 0.0184
vn 0.0756 -0.9968 -0.0278
vn 0.2589 -0.1107 0.9595
vn 0.5408 0.5720 0.6167
vn 0.8809 -0.4157 0.2263
vn 0.0959 0.4729 -0.8759
vn -0.7815 0.2405 0.5757
vn -0.5574 0.6535 0.5121
vn 0.4440 -0.8311 0.3349
vn 0.1408 0.3242 -0.9355
vn -0.5847 -0.6845 -0.4355
vn 0.4480 -0.8779 0.1690
vn -0.4896 -0.7622 -0.4235
vn 0.5884 0.4148 -0.6941
vn 0.1958 0.2049 0.9590
vn 0.6013 0.0184 0.7988
vn -0.8928 -0.4408 -0.0928
vn 0.4477 0.4376 -0.7798
vn -0.5830 0.8124 -0.0112
usemtl gravel
s off
f 1//1 2//1 3//1
f 1//2 3//2 4//2
f 2//3 1//3 5//3
f 3//4 2//4 5//4
f 3//5 5//5 6//5
f 3//6 6//6 4//6
f 1//7 4//7 5//7
f 4//8 6//8 5//8
f 7//9 8//9 9//9
f 7//10 9//10 10//10
f 8//11 7//11 11//11
f 9//12 8//12 11//12
f 9//13 11//13 12//13
f 9//14 12//14 10//14
f 7//15 10//15 11//15
f 10//16 12//16 11//16
f 13//17 14//17 15//17
f 13//18 15//18 16//18
f 14//19 13//19 17//19
f 15//20 14//20 17//20
f 15//21 17//21 18//21
f 15//22 18//22 16//22
f 13//23 16//23 17//23
f 16//24 18//24 17//24
f 19//25 20//25 21//25
f 19//26 21//26 22//26
f 20//27 19//27 23//27
f 21//28 20//28 23//28
f 21//29 23//29 24//29
f 21//30 24//30 22//30
f 19//31 22//31 23//31
f 22//32 24//32 23//32
f 25//33 26//33 27//33
f 25//34 27//34 28//34
f 26//35 25//35 29//35
f 27//36 26//36 29//36
f 27//37 29//37 30//37
f 27//38 30//38 28//38
f 25//39 28//39 29//39
f 28//40 30//40 29//40
f 31//41 32//41 33//41
f 31//42 33//42 34//42
f 32//43 31//43 35//43
f 33//44 32//44 35//44
f 33//45 35//45 36//45
f 33//46 36//46 34//46
f 31//47 34//47 35//47
f 34//48 36//48 35//48
f 37//49 38//49 39//49
f 37//50 39//50 40//50
f 38//51 37//51 41//51
f 39//52 38//52 41//52
f 39//53 41//53 42//53
f 39//54 42//54 40//54
f 37//55 40//55 41//55
f 40//56 42//56 41//56
f 43//57 44//57 45//57
f 43//58 45//58 46//58
f 44//59 43//59 47//59
f 45//60 44//60 47//60
f 45//61 47//61 48//61
f 45//62 48//62 46//62
f 43//63 46//63 47//63
f 46//64 48//64 47//64
f 49//65 50//65 51//65
f 49//66 51//66 52//66
f 50//67 49//67 53//67
f 51//68 50//68 53//68
f 51//69 53//69 54//69
f 51//70 54//70 52//70
f 49//71 52//71 53//71
f 52//72 54//72 53//72
f 55//73 56//73 57//73
f 55//74 57//74 58//74
f 56//75 55//75 59//75
f 57//76 56//76 59//76
f 57//77 59//77 60//77
f 57//78 60//78 58//78
f 55//79 58//79 59//79
f 58//80 60//80 59//80
f 61//81 62//81 63//81
f 61//82 63//82 64//82
f 62//83 61//83 65//83
f 63//84 62//84 65//84
f 63//85 65//85 66//85
f 63//86 66//86 64//86
f 61//87 64//87 65//87
f 64//88 66//88 65//88
f 67//89 68//89 69//89
f 67//90 69//90 70//90
f 68//91 67//91 71//91
f 69//92 68//92 71//92
f 69//93 71//93 72//93
f 69//94 72//94 70//94
f 67//95 70//95 71//95
f 70//96 72//96 71//96
f 73//97 74//97 75//97
f 73//98 75//98 76//98
f 74//99 73//99 77//99
f 75//100 74//100 77//100
f 75//101 77//101 78//101
f 75//102 78//102 76//102
f 73//103 76//103 77//103
f 76//104 78//104 77//104
f 79//105 80//105 81//105
f 79//106 81//106 82//106
f 80//107 79//107 83//107
f 81//108 80//108 83//108
f 81//109 83//109 84//109
f 81//110 84//110 82//110
f 79//111 82//111 83//111
f 82//112 84//112 83//112
f 85//113 86//113 87//113
f 85//114 87//114 88//114
f 86//115 85//115 89//115
f 87//116 86//116 89//116
f 87//117 89//117 90//117
f 87//118 90//118 88//118
f 85//119 88//119 89//119
f 88//120 90//120 89//120
f 91//121 92//121 93//121
f 91//122 93//122 94//122
f 92//123 91//123 95//123
f 93//124 92//124 95//124
f 93//125 95//125 96//125
f 93//126 96//126 94//126
f 91//127 94//127 95//127
f 94//128 96//128 95//128
f 97//97 98//97 99//97
f 97//98 99//98 100//98
f 98//99 97//99 101//99
f 99//100 98//100 101//100
f 99//101 101//101 102//101
f 99//102 102//102 100//102
f 97//103 100//103 101//103
f 100//104 102//104 101//104
f 103//105 104//105 105//105
f 103//106 105//106 106//106
f 104//107 103//107 107//107
f 105//108 104//108 107//108
f 105//109 107//109 108//109
f 105//110 108//110 106//110
f 103//111 106//111 107//111
f 106//112 108//112 107//112
f 109//113 110//113 111//113
f 109//114 111//114 112//114
f 110//115 109//115 113//115
f 111//116 110//116 113//116
f 111//117 113//117 114//117
f 111//118 114//118 112//118
f 109//119 112//119 113//119
f 112//120 114//120 113//120
f 115//121 116//121 117//121
f 115//122 117//122 118//122
f 116//123 115//123 119//123
f 117//124 116//124 119//124
f 117//125 119//125 120//125
f 117//126 120//126 118//126
f 115//127 118//127 119//127
f 118//128 120//128 119//128
f 121//129 122//129 123//129
f 121//130 123//130 124//130
f 122//131 121//131 125//131
f 123//132 122//132 125//132
f 123//133 125//133 126//133
f 123//134 126//134 124//134
f 121//135 124//135 125//135
f 124//136 126//136 125//136
f 127//137 128//137 129//137
f 127//138 129//138 130//138
f 128//139 127//139 131//139
f 129//140 128//140 131//140
f 129//141 131//141 132//141
f 129//142 132//142 130//142
f 127//143 130//143 131//143
f 130//144 132//144 131//144
f 133//145 134//145 135//145
f 133//146 135//146 136//146
f 134//147 133//147 137//147
f 135//148 134//148 137//148
f 135//149 137//149 138//149
f 135//150 138//150 136//150
f 133//151 136//151 137//151
f 136//152 138//152 137//152
f 139//153 140//153 141//153
f 139//154 141//154 142//154
f 140//155 139//155 143//155
f 141//156 140//156 143//156
f 141//157 143//157 144//157
f 141//158 144//158 142//158
f 139//159 142//159 143//159
f 142//160 144//160 143//160
