# Blender v2.78 (sub 0) OBJ File: 'BAUM.blend'
# www.blender.org
mtllib house.mtl
v 4.000000 0.500000 -3.000000
v 4.200000 0.000000 -3.200000
v 4.000000 0.500000 1.000000
v 4.200000 0.000000 1.200000
v -4.000000 0.500000 -3.000000
v -4.200000 0.000000 -3.200000
v -4.000000 0.500000 1.000000
v -4.200000 0.000000 1.000000
v 2.200000 0.000000 1.200000
v 2.000000 0.000000 -3.200000
v 2.000000 0.500000 -3.000000
v 2.000000 0.500000 1.000000
v 2.000000 0.500000 4.000000
v -4.000000 0.500000 4.000000
v -4.200000 0.000000 4.200000
v 2.200000 0.000000 4.200000
v 2.335883 0.000000 1.200000
v 3.814117 0.000000 1.200000
v 2.535883 0.500000 -3.000000
v 3.614117 0.500000 -3.000000
v 3.614117 0.000000 -3.200000
v 2.535883 0.000000 -3.200000
v 3.614117 0.500000 1.000000
v 2.535883 0.500000 1.000000
v 2.335883 0.000000 1.500000
v 3.814117 0.000000 1.500000
v 3.675000 0.000000 0.925000
v 3.675000 2.100000 0.925000
v 3.675000 0.000000 0.675000
v 3.675000 2.200000 0.675000
v 3.925000 0.000000 0.925000
v 3.925000 2.100000 0.925000
v 3.925000 0.000000 0.675000
v 3.925000 2.200000 0.675000
v 2.175000 0.000000 0.925000
v 2.175000 2.000000 0.925000
v 2.175000 0.000000 0.675000
v 2.175000 2.000000 0.675000
v 2.425000 0.000000 0.925000
v 2.425000 2.000000 0.925000
v 2.425000 0.000000 0.675000
v 2.425000 2.000000 0.675000
v 1.675000 0.000000 0.925000
v 1.675000 2.000000 0.925000
v 1.675000 0.000000 0.675000
v 1.675000 2.000000 0.675000
v 1.925000 0.000000 0.925000
v 1.925000 2.000000 0.925000
v 1.925000 0.000000 0.675000
v 1.925000 2.000000 0.675000
v 1.675000 0.000000 3.925000
v 1.675000 2.100000 3.925000
v 1.675000 0.000000 3.675000
v 1.675000 2.100000 3.675000
v 1.925000 0.000000 3.925000
v 1.925000 2.000000 3.925000
v 1.925000 0.000000 3.675000
v 1.925000 2.000000 3.675000
v -3.925000 0.000000 3.925000
v -3.925000 2.000000 3.925000
v -3.925000 0.000000 3.675000
v -3.925000 2.000000 3.675000
v -3.675000 0.000000 3.925000
v -3.675000 2.100000 3.925000
v -3.675000 0.000000 3.675000
v -3.675000 2.100000 3.675000
v -3.925000 0.000000 -2.675000
v -3.925000 2.000000 -2.675000
v -3.925000 0.000000 -2.925000
v -3.925000 2.000000 -2.925000
v -3.675000 0.000000 -2.675000
v -3.675000 2.000000 -2.675000
v -3.675000 0.000000 -2.925000
v -3.675000 2.000000 -2.925000
v 3.675000 0.000000 -2.675000
v 3.675000 2.200000 -2.675000
v 3.675000 0.000000 -2.925000
v 3.675000 2.100000 -2.925000
v 3.925000 0.000000 -2.675000
v 3.925000 2.200000 -2.675000
v 3.925000 0.000000 -2.925000
v 3.925000 2.100000 -2.925000
v 1.675000 0.000000 -2.675000
v 1.675000 2.000000 -2.675000
v 1.675000 0.000000 -2.925000
v 1.675000 2.000000 -2.925000
v 1.925000 0.000000 -2.675000
v 1.925000 2.000000 -2.675000
v 1.925000 0.000000 -2.925000
v 1.925000 2.000000 -2.925000
v -1.125000 0.000000 3.925000
v -1.125000 2.900000 3.925000
v -1.125000 0.000000 3.675000
v -1.125000 2.900000 3.675000
v -0.875000 0.000000 3.925000
v -0.875000 2.900000 3.925000
v -0.875000 0.000000 3.675000
v -0.875000 2.900000 3.675000
v -1.125000 0.000000 -2.675000
v -1.125000 2.000000 -2.675000
v -1.125000 0.000000 -2.925000
v -1.125000 2.000000 -2.925000
v -0.875000 0.000000 -2.675000
v -0.875000 2.000000 -2.675000
v -0.875000 0.000000 -2.925000
v -0.875000 2.000000 -2.925000
v -3.925000 0.000000 0.925000
v -3.925000 2.000000 0.925000
v -3.925000 0.000000 0.675000
v -3.925000 2.000000 0.675000
v -3.675000 0.000000 0.925000
v -3.675000 2.000000 0.925000
v -3.675000 0.000000 0.675000
v -3.675000 2.000000 0.675000
v -1.000000 0.500000 -2.700000
v -1.000000 2.000000 -2.700000
v -1.000000 0.500000 -2.900000
v -1.000000 2.000000 -2.900000
v 1.800000 0.500000 -2.700000
v 1.800000 2.000000 -2.700000
v 1.800000 0.500000 -2.900000
v 1.800000 2.000000 -2.900000
v -3.800000 0.500000 -2.700000
v -3.800000 2.000000 -2.700000
v -3.800000 0.500000 -2.900000
v -3.800000 2.000000 -2.900000
v -1.000000 0.500000 -2.700000
v -1.000000 2.000000 -2.700000
v -1.000000 0.500000 -2.900000
v -1.000000 2.000000 -2.900000
v 1.800000 0.500000 -2.700000
v 1.800000 2.000000 -2.700000
v 1.800000 0.500000 -2.900000
v 1.800000 2.000000 -2.900000
v 3.800000 0.500000 -2.700000
v 3.800000 2.000000 -2.700000
v 3.800000 0.500000 -2.900000
v 3.800000 2.000000 -2.900000
v 3.900000 0.500000 0.800000
v 3.900000 2.100000 0.800000
v 3.700000 0.500000 0.800000
v 3.700000 2.100000 0.800000
v 3.900000 0.500000 -2.800000
v 3.900000 2.100000 -2.800000
v 3.700000 0.500000 -2.800000
v 3.700000 2.100000 -2.800000
v -3.700000 0.500000 0.800000
v -3.700000 2.000000 0.800000
v -3.900000 0.500000 0.800000
v -3.900000 2.000000 0.800000
v -3.700000 0.500000 -2.800000
v -3.700000 2.000000 -2.800000
v -3.900000 0.500000 -2.800000
v -3.900000 2.000000 -2.800000
v -3.700000 0.500000 3.800000
v -3.700000 2.000000 3.800000
v -3.900000 0.500000 3.800000
v -3.900000 2.000000 3.800000
v -3.700000 0.500000 0.800000
v -3.700000 2.000000 0.800000
v -3.900000 0.500000 0.800000
v -3.900000 2.000000 0.800000
v -1.000000 0.500000 3.900000
v -1.000000 3.000000 3.900000
v -1.000000 0.500000 3.700000
v -1.000000 3.000000 3.700000
v 1.800000 0.500000 3.900000
v 1.800000 2.100000 3.900000
v 1.800000 0.500000 3.700000
v 1.800000 2.100000 3.700000
v -3.800000 0.500000 3.900000
v -3.800000 2.100000 3.900000
v -3.800000 0.500000 3.700000
v -3.800000 2.100000 3.700000
v -1.000000 0.500000 3.900000
v -1.000000 3.000000 3.900000
v -1.000000 0.500000 3.700000
v -1.000000 3.000000 3.700000
v 1.900000 0.500000 3.800000
v 1.900000 2.000000 3.800000
v 1.700000 0.500000 3.800000
v 1.700000 2.000000 3.800000
v 1.900000 0.500000 0.800000
v 1.900000 2.000000 0.800000
v 1.700000 0.500000 0.800000
v 1.700000 2.000000 0.800000
v 2.300000 0.500000 0.700000
v 2.300000 2.000000 0.700000
v 2.300000 0.500000 0.900000
v 2.300000 2.000000 0.900000
v 1.800000 0.500000 0.700000
v 1.800000 2.000000 0.700000
v 1.800000 0.500000 0.900000
v 1.800000 2.000000 0.900000
v 4.400000 2.000000 1.200000
v -4.200000 2.000000 4.400000
v 4.400000 2.000000 -3.200000
v -4.200000 2.000000 -3.200000
v 2.200000 2.000000 1.200000
v 2.200000 2.000000 4.400000
v -1.000000 3.000000 4.400000
v 4.400000 3.000000 -1.000000
v -1.000000 3.000000 -1.000000
v -4.184040 1.900218 -3.177859
v -1.000000 2.892693 -1.000000
v -1.000000 2.895231 4.400000
v -4.170172 1.904552 4.400000
v 2.184040 1.900218 1.177859
v 2.170172 1.904552 4.400000
v 4.400000 1.908963 -3.158620
v 4.400000 2.890154 -1.000000
v 4.400000 1.908963 1.158620
v 3.700000 0.500000 -1.000000
v 3.700000 3.000000 -1.000000
v 3.900000 0.500000 -1.000000
v 3.900000 3.000000 -1.000000
vn 0.0000 1.0000 0.0000
vn 0.9285 0.3714 0.0000
vn 0.0000 0.3714 -0.9285
vn -0.9285 0.3714 0.0000
vn 0.0000 0.3714 0.9285
vn 0.0000 0.7071 0.7071
vn -1.0000 0.0000 0.0000
vn 0.0000 0.0000 -1.0000
vn 1.0000 0.0000 0.0000
vn 0.0000 0.0000 1.0000
vn 0.0000 -1.0000 0.0000
vn 0.0000 0.9285 0.3714
vn 0.3714 0.9285 0.0000
vn -0.3714 0.9285 0.0000
vn 0.0000 0.9285 -0.3714
vn 0.0000 0.8944 0.4472
vn 0.3060 0.9520 0.0000
vn -0.3060 0.9520 0.0000
vn -0.2983 0.9545 -0.0000
vn 0.2983 0.9545 0.0000
vn 0.0000 0.9104 -0.4138
vn 0.0000 0.9104 0.4138
vn 0.2979 -0.9546 0.0002
vn -0.2980 -0.9546 0.0003
vn -0.0002 -0.9101 0.4143
vn -0.0003 -0.9102 -0.4141
vn -0.9736 -0.2282 0.0010
vn 0.0048 -0.3162 0.9487
vn 0.0012 -0.3158 -0.9488
vn 0.9735 -0.2286 0.0023
vn -0.0000 0.8944 -0.4472
usemtl None
s off
f 11//1 5//1 7//1 12//1
f 2//2 1//2 3//2 4//2
f 21//3 20//3 1//3 2//3
f 12//1 7//1 14//1 13//1
f 8//4 7//4 5//4 6//4
f 17//5 24//5 12//5 9//5
f 6//3 5//3 11//3 10//3
f 19//1 11//1 12//1 24//1
f 16//5 13//5 14//5 15//5
f 9//2 12//2 13//2 16//2
f 7//4 8//4 15//4 14//4
f 1//1 20//1 23//1 3//1
f 20//1 19//1 24//1 23//1
f 4//5 3//5 23//5 18//5
f 10//3 11//3 19//3 22//3
f 22//3 19//3 20//3 21//3
f 23//6 24//6 25//6 26//6
f 18//2 23//2 26//2
f 17//4 25//4 24//4
f 27//7 28//7 30//7 29//7
f 29//8 30//8 34//8 33//8
f 33//9 34//9 32//9 31//9
f 31//10 32//10 28//10 27//10
f 29//11 33//11 31//11 27//11
f 34//12 30//12 28//12 32//12
f 35//7 36//7 38//7 37//7
f 37//8 38//8 42//8 41//8
f 41//9 42//9 40//9 39//9
f 39//10 40//10 36//10 35//10
f 37//11 41//11 39//11 35//11
f 42//1 38//1 36//1 40//1
f 43//7 44//7 46//7 45//7
f 45//8 46//8 50//8 49//8
f 49//9 50//9 48//9 47//9
f 47//10 48//10 44//10 43//10
f 45//11 49//11 47//11 43//11
f 50//1 46//1 44//1 48//1
f 51//7 52//7 54//7 53//7
f 53//8 54//8 58//8 57//8
f 57//9 58//9 56//9 55//9
f 55//10 56//10 52//10 51//10
f 53//11 57//11 55//11 51//11
f 58//13 54//13 52//13 56//13
f 59//7 60//7 62//7 61//7
f 61//8 62//8 66//8 65//8
f 65//9 66//9 64//9 63//9
f 63//10 64//10 60//10 59//10
f 61//11 65//11 63//11 59//11
f 66//14 62//14 60//14 64//14
f 67//7 68//7 70//7 69//7
f 69//8 70//8 74//8 73//8
f 73//9 74//9 72//9 71//9
f 71//10 72//10 68//10 67//10
f 69//11 73//11 71//11 67//11
f 74//1 70//1 68//1 72//1
f 75//7 76//7 78//7 77//7
f 77//8 78//8 82//8 81//8
f 81//9 82//9 80//9 79//9
f 79//10 80//10 76//10 75//10
f 77//11 81//11 79//11 75//11
f 82//15 78//15 76//15 80//15
f 83//7 84//7 86//7 85//7
f 85//8 86//8 90//8 89//8
f 89//9 90//9 88//9 87//9
f 87//10 88//10 84//10 83//10
f 85//11 89//11 87//11 83//11
f 90//1 86//1 84//1 88//1
f 91//7 92//7 94//7 93//7
f 93//8 94//8 98//8 97//8
f 97//9 98//9 96//9 95//9
f 95//10 96//10 92//10 91//10
f 93//11 97//11 95//11 91//11
f 98//1 94//1 92//1 96//1
f 99//7 100//7 102//7 101//7
f 101//8 102//8 106//8 105//8
f 105//9 106//9 104//9 103//9
f 103//10 104//10 100//10 99//10
f 101//11 105//11 103//11 99//11
f 106//1 102//1 100//1 104//1
f 107//7 108//7 110//7 109//7
f 109//8 110//8 114//8 113//8
f 113//9 114//9 112//9 111//9
f 111//10 112//10 108//10 107//10
f 109//11 113//11 111//11 107//11
f 114//1 110//1 108//1 112//1
f 115//7 116//7 118//7 117//7
f 117//8 118//8 122//8 121//8
f 121//9 122//9 120//9 119//9
f 119//10 120//10 116//10 115//10
f 117//11 121//11 119//11 115//11
f 122//1 118//1 116//1 120//1
f 123//7 124//7 126//7 125//7
f 125//8 126//8 130//8 129//8
f 129//9 130//9 128//9 127//9
f 127//10 128//10 124//10 123//10
f 125//11 129//11 127//11 123//11
f 130//1 126//1 124//1 128//1
f 131//7 132//7 134//7 133//7
f 133//8 134//8 138//8 137//8
f 137//9 138//9 136//9 135//9
f 135//10 136//10 132//10 131//10
f 133//11 137//11 135//11 131//11
f 138//1 134//1 132//1 136//1
f 139//10 140//10 142//10 141//10
f 213//7 214//7 146//7 145//7
f 145//8 146//8 144//8 143//8
f 215//9 216//9 140//9 139//9
f 213//11 145//11 143//11 215//11
f 214//16 142//16 140//16 216//16
f 147//10 148//10 150//10 149//10
f 149//7 150//7 154//7 153//7
f 153//8 154//8 152//8 151//8
f 151//9 152//9 148//9 147//9
f 149//11 153//11 151//11 147//11
f 154//1 150//1 148//1 152//1
f 155//10 156//10 158//10 157//10
f 157//7 158//7 162//7 161//7
f 161//8 162//8 160//8 159//8
f 159//9 160//9 156//9 155//9
f 157//11 161//11 159//11 155//11
f 162//1 158//1 156//1 160//1
f 163//7 164//7 166//7 165//7
f 165//8 166//8 170//8 169//8
f 169//9 170//9 168//9 167//9
f 167//10 168//10 164//10 163//10
f 165//11 169//11 167//11 163//11
f 170//17 166//17 164//17 168//17
f 171//7 172//7 174//7 173//7
f 173//8 174//8 178//8 177//8
f 177//9 178//9 176//9 175//9
f 175//10 176//10 172//10 171//10
f 173//11 177//11 175//11 171//11
f 178//18 174//18 172//18 176//18
f 179//10 180//10 182//10 181//10
f 181//7 182//7 186//7 185//7
f 185//8 186//8 184//8 183//8
f 183//9 184//9 180//9 179//9
f 181//11 185//11 183//11 179//11
f 186//1 182//1 180//1 184//1
f 187//9 188//9 190//9 189//9
f 189//10 190//10 194//10 193//10
f 193//7 194//7 192//7 191//7
f 191//8 192//8 188//8 187//8
f 189//11 193//11 191//11 187//11
f 194//1 190//1 188//1 192//1
f 198//19 196//19 201//19 203//19
f 201//20 200//20 199//20 203//20
f 197//21 198//21 203//21 202//21
f 199//22 195//22 202//22 203//22
f 204//23 205//23 206//23 207//23
f 206//24 205//24 208//24 209//24
f 210//25 211//25 205//25 204//25
f 208//26 205//26 211//26 212//26
f 196//27 198//27 204//27 207//27
f 195//28 199//28 208//28 212//28
f 200//10 201//10 206//10 209//10
f 197//9 202//9 211//9 210//9
f 201//10 196//10 207//10 206//10
f 198//29 197//29 210//29 204//29
f 199//30 200//30 209//30 208//30
f 202//9 195//9 212//9 211//9
f 146//31 214//31 216//31 144//31
f 141//11 213//11 215//11 139//11
f 143//9 144//9 216//9 215//9
f 141//7 142//7 214//7 213//7
