# Blender v2.78 (sub 0) OBJ File: 'BAUM.blend'
# www.blender.org
o Plane
v -0.445781 -0.069992 0.138682
v 0.022658 0.093882 0.138682
v -0.445781 -0.069992 -0.138682
v 0.022658 0.093882 -0.138682
v -0.986543 -4.652708 0.138682
v -0.986543 -4.652708 -0.138682
v -0.044818 -0.804906 0.178595
v 0.423621 -0.641032 0.178595
v -0.585580 -4.551394 0.178595
v -0.137031 -0.972898 -0.223021
v 0.331408 -0.809024 -0.223021
v -0.677793 -4.719386 -0.223021
vt 0.7500 0.3750
vt 1.0000 0.3750
vt 1.0000 0.6250
vt 0.7500 0.6250
vt 0.0000 0.6250
vt 0.0000 0.3750
vt 0.0000 0.1250
vt 0.7500 0.1250
vt 1.0000 0.1250
vt 0.7500 0.8750
vt 0.0000 0.8750
vt 1.0000 0.8750
vn -0.3302 0.9439 0.0000
vn -0.9931 0.1172 0.0000
vn -0.0899 0.0117 0.9959
vn -0.0159 0.0456 0.9988
vn -0.2212 0.0287 -0.9748
vn -0.0291 0.0831 -0.9961
s off
f 1/1/1 2/2/1 4/3/1 3/4/1
f 1/1/2 3/4/2 6/5/2 5/6/2
f 1/1/3 5/6/3 9/7/3 7/8/3
f 2/2/4 1/1/4 7/8/4 8/9/4
f 6/5/5 3/4/5 10/10/5 12/11/5
f 3/4/6 4/3/6 11/12/6 10/10/6
