# Blender v2.78 (sub 0) OBJ File: 'BAUM.blend'
# www.blender.org
mtllib stone.mtl
v 0.196055 -0.142255 0.003063
v 0.614865 -0.031200 0.381328
v 0.026550 0.019873 0.583738
v -0.378622 -0.050862 -0.044334
v -0.105346 0.019136 -0.705498
v 0.630080 -0.040821 -0.558725
v 0.275928 0.372795 0.370245
v -0.141402 0.383907 0.337237
v -0.255267 0.348675 -0.453677
v 0.279828 0.438911 -0.695819
v 0.633666 0.455819 -0.142961
v -0.134296 0.504408 -0.176631
v 0.122198 -0.125025 0.317716
v 0.446557 -0.072336 0.188830
v 0.365732 -0.033550 0.475767
v 0.561903 0.050436 -0.106869
v 0.421132 -0.066033 -0.270480
v -0.098150 -0.117728 -0.024250
v -0.195020 -0.041141 0.293325
v 0.029321 -0.105618 -0.407256
v -0.240199 -0.048296 -0.393527
v 0.300136 -0.004465 -0.656844
v 0.623232 0.236339 0.135944
v 0.710104 0.231498 -0.315257
v 0.093509 0.206911 0.529525
v 0.457721 0.212071 0.440866
v -0.267373 0.197606 0.143327
v -0.091006 0.190076 0.470459
v -0.173350 0.146709 -0.611073
v -0.393609 0.228804 -0.264470
v 0.439332 0.188144 -0.686025
v 0.089022 0.262506 -0.752901
v 0.499431 0.432774 0.191471
v 0.031900 0.407479 0.389444
v -0.290377 0.351795 -0.074429
v -0.073453 0.473891 -0.655926
v 0.497183 0.447218 -0.457813
v 0.043788 0.481578 0.142522
v 0.285939 0.546670 -0.129199
v -0.128408 0.437564 0.083449
v -0.262582 0.498254 -0.320853
v 0.048516 0.504658 -0.489199
vn 0.1981 -0.9751 0.0999
vn 0.4369 -0.8783 -0.1943
vn -0.0862 -0.9957 0.0343
vn -0.0777 -0.9953 -0.0573
vn 0.1506 -0.9774 -0.1485
vn 0.9797 -0.1513 -0.1316
vn 0.3218 0.1555 0.9340
vn -0.8784 0.0333 0.4767
vn -0.8921 -0.1639 -0.4210
vn 0.2391 -0.3121 -0.9195
vn 0.7923 0.3988 0.4618
vn -0.3138 0.3663 0.8760
vn -0.9339 0.1889 0.3035
vn -0.5504 0.2869 -0.7840
vn 0.7527 0.3018 -0.5850
vn 0.0578 0.9225 0.3817
vn -0.1893 0.9626 0.1938
vn -0.9952 0.0334 -0.0924
vn 0.0701 0.9706 -0.2304
vn 0.2456 0.9602 -0.1327
vn -0.0939 0.9941 -0.0541
vn 0.1384 0.9691 -0.2043
vn 0.1363 0.9779 -0.1586
vn -0.0295 0.9994 -0.0164
vn -0.0853 0.9891 -0.1201
vn -0.7922 0.3831 -0.4750
vn -0.3170 0.9168 0.2428
vn -0.6690 0.6696 0.3225
vn -0.5680 0.8106 0.1423
vn -0.3176 0.9166 0.2428
vn -0.3214 0.9111 0.2580
vn 0.1570 0.9438 0.2908
vn -0.1141 0.9844 0.1341
vn 0.0708 0.9539 0.2916
vn 0.2554 0.9521 0.1681
vn 0.7720 0.5312 -0.3491
vn 0.7381 0.3456 -0.5794
vn 0.6693 0.4013 -0.6253
vn -0.0676 0.3726 -0.9255
vn -0.4850 0.0282 -0.8741
vn -0.7805 0.1553 -0.6055
vn -0.7071 0.7036 -0.0712
vn -0.9069 0.2928 0.3031
vn -0.9056 0.2952 0.3047
vn -0.3122 0.4816 0.8189
vn -0.3069 0.4798 0.8220
vn 0.1468 0.5963 0.7892
vn 0.3422 0.6745 0.6542
vn 0.8023 0.3741 0.4652
vn 0.8312 0.4213 0.3627
vn 0.2057 0.0928 -0.9742
vn 0.1323 -0.2413 -0.9614
vn 0.0995 -0.2662 -0.9588
vn -0.8305 0.0913 -0.5494
vn -0.8436 -0.2443 -0.4782
vn -0.8789 -0.3232 -0.3508
vn -0.8750 0.0983 0.4740
vn -0.8795 0.0318 0.4749
vn -0.7761 -0.1245 0.6183
vn 0.1876 0.5651 0.8034
vn 0.2356 0.0497 0.9706
vn 0.3545 0.0001 0.9351
vn 0.9649 0.1876 0.1838
vn 0.8490 -0.5006 0.1688
vn 0.8640 -0.4521 0.2217
vn -0.0684 -0.9883 -0.1361
vn 0.1695 -0.9636 -0.2066
vn -0.0078 -0.9238 -0.3829
vn -0.2131 -0.9319 -0.2936
vn -0.2119 -0.9720 -0.1013
vn -0.2243 -0.9698 -0.0961
vn -0.2397 -0.9579 0.1579
vn -0.2635 -0.9530 0.1495
vn -0.2634 -0.8838 0.3867
vn 0.4370 -0.8666 0.2410
vn 0.6688 -0.7420 -0.0472
vn 0.2887 -0.9570 -0.0291
vn 0.0157 -0.8757 0.4826
vn 0.2320 -0.9531 0.1942
vn 0.0670 -0.9861 0.1522
usemtl stone
s off
f 1//1 14//1 13//1
f 2//2 14//2 16//2
f 1//3 13//3 18//3
f 1//4 18//4 20//4
f 1//5 20//5 17//5
f 2//6 16//6 23//6
f 3//7 15//7 25//7
f 4//8 19//8 27//8
f 5//9 21//9 29//9
f 6//10 22//10 31//10
f 2//11 23//11 26//11
f 3//12 25//12 28//12
f 4//13 27//13 30//13
f 5//14 29//14 32//14
f 6//15 31//15 24//15
f 7//16 33//16 38//16
f 8//17 34//17 40//17
f 9//18 35//18 41//18
f 10//19 36//19 42//19
f 11//20 37//20 39//20
f 39//21 42//21 12//21
f 39//22 37//22 42//22
f 37//23 10//23 42//23
f 42//24 41//24 12//24
f 42//25 36//25 41//25
f 36//26 9//26 41//26
f 41//27 40//27 12//27
f 41//28 35//28 40//28
f 35//29 8//29 40//29
f 40//30 38//30 12//30
f 40//31 34//31 38//31
f 34//32 7//32 38//32
f 38//33 39//33 12//33
f 38//34 33//34 39//34
f 33//35 11//35 39//35
f 24//36 37//36 11//36
f 24//37 31//37 37//37
f 31//38 10//38 37//38
f 32//39 36//39 10//39
f 32//40 29//40 36//40
f 29//41 9//41 36//41
f 30//42 35//42 9//42
f 30//43 27//43 35//43
f 27//44 8//44 35//44
f 28//45 34//45 8//45
f 28//46 25//46 34//46
f 25//47 7//47 34//47
f 26//48 33//48 7//48
f 26//49 23//49 33//49
f 23//50 11//50 33//50
f 31//51 32//51 10//51
f 31//52 22//52 32//52
f 22//53 5//53 32//53
f 29//54 30//54 9//54
f 29//55 21//55 30//55
f 21//56 4//56 30//56
f 27//57 28//57 8//57
f 27//58 19//58 28//58
f 19//59 3//59 28//59
f 25//60 26//60 7//60
f 25//61 15//61 26//61
f 15//62 2//62 26//62
f 23//63 24//63 11//63
f 23//64 16//64 24//64
f 16//65 6//65 24//65
f 17//66 22//66 6//66
f 17//67 20//67 22//67
f 20//68 5//68 22//68
f 20//69 21//69 5//69
f 20//70 18//70 21//70
f 18//71 4//71 21//71
f 18//72 19//72 4//72
f 18//73 13//73 19//73
f 13//74 3//74 19//74
f 16//75 17//75 6//75
f 16//76 14//76 17//76
f 14//77 1//77 17//77
f 13//78 15//78 3//78
f 13//79 14//79 15//79
f 14//80 2//80 15//80
