# Blender v2.78 (sub 0) OBJ File: 'BAUM.blend'
# www.blender.org
mtllib tree.mtl
v -0.213069 0.000000 0.213069
v -0.521804 2.000000 -0.258146
v -0.213069 0.000000 -0.213069
v -0.521804 2.000000 -0.585886
v 0.213069 0.000000 0.213069
v -0.194064 2.000000 -0.258146
v 0.213069 0.000000 -0.213069
v -0.194064 2.000000 -0.585886
v -0.847256 2.948469 -0.466552
v -0.824524 2.934201 -0.793191
v -0.500928 2.981967 -0.772756
v -0.523661 2.996235 -0.446117
v -1.036849 3.172612 -0.572767
v -0.987014 3.183013 -0.849141
v -0.675282 3.172694 -0.800678
v -0.725118 3.162294 -0.524304
v -1.990914 3.890803 -0.587733
v -1.944600 3.912296 -0.764043
v -1.817037 4.035056 -0.715570
v -1.863351 4.013564 -0.539259
v -1.206077 3.646013 -0.773333
v -1.390585 3.737733 -0.743240
v -1.428745 3.712012 -0.533482
v -1.244184 3.622946 -0.530208
v -1.418937 3.466453 -0.578397
v -1.576247 3.569278 -0.581777
v -1.538087 3.594999 -0.791535
v -1.380831 3.489520 -0.821522
v -2.316809 4.125154 -0.671351
v -2.295948 4.134836 -0.750768
v -2.238488 4.190132 -0.728933
v -2.259350 4.180451 -0.649516
v 0.028024 3.538343 -0.668296
v 0.015334 3.546308 -0.428533
v -0.109363 3.727599 -0.688791
v -0.137182 3.721794 -0.485924
v 0.486528 4.016936 -0.555198
v 0.482465 4.016340 -0.478438
v 0.442544 4.070277 -0.561759
v 0.433638 4.063996 -0.496812
v -1.331184 4.040884 -1.580557
v -1.376715 4.063518 -1.573131
v -1.413114 4.028295 -1.585049
v -1.374308 4.002266 -1.592449
v -2.267457 4.008027 -1.731286
v -1.816235 3.513105 -1.502454
v -0.410044 2.991668 0.501274
v -1.340887 4.446959 -1.392877
v -1.868167 4.619324 -2.098390
v -1.899477 3.882294 -2.450080
v -1.118234 3.395991 -1.500495
v -2.742928 4.825096 0.571500
v 0.326073 3.483700 1.404904
v -0.960360 4.157567 -2.161036
v -1.189218 3.504032 -2.307451
v 1.413159 3.024992 0.543609
v -0.578933 4.078293 -0.673443
v 0.863248 2.785004 -0.788296
v 1.744760 4.136831 0.053373
v -0.158508 4.758056 0.880242
v 0.551621 4.134838 -0.894059
v -1.264981 4.624284 -1.156882
v 0.629108 5.086937 -0.305301
v -0.942905 4.494368 0.285461
v -2.205788 3.534984 -1.516444
v -3.457860 3.738014 -0.747014
v -3.135784 3.608098 0.695330
v -1.684640 3.324773 0.817286
v -2.716125 4.907609 -1.278839
v -1.787521 3.005718 -0.423003
v -1.935610 5.500534 -0.165208
vn -0.9883 -0.1526 0.0000
vn 0.0000 -0.1833 -0.9831
vn 0.9799 0.1995 0.0000
vn 0.0000 0.2293 0.9733
vn 0.0000 -1.0000 0.0000
vn -0.9465 -0.3215 -0.0259
vn 0.1132 -0.1019 -0.9883
vn -0.0444 0.1851 0.9817
vn 0.0445 -0.1877 -0.9812
vn 0.9502 0.3107 0.0262
vn 0.5607 0.7982 0.2203
vn -0.6862 0.7222 -0.0868
vn -0.7838 -0.6144 -0.0904
vn -0.1208 0.3226 0.9388
vn -0.2948 -0.0699 0.9530
vn -0.6019 -0.7661 -0.2254
vn -0.1548 -0.1928 0.9690
vn 0.1109 0.2369 -0.9652
vn 0.1266 0.2183 -0.9676
vn 0.6690 -0.6215 -0.4077
vn -0.1460 -0.1595 0.9763
vn -0.1219 -0.1833 0.9755
vn -0.6074 -0.7795 -0.1530
vn -0.5536 -0.8129 -0.1808
vn 0.6580 0.7360 0.1588
vn 0.4434 0.8801 0.1695
vn -0.6733 0.7342 -0.0874
vn 0.1229 0.2514 -0.9601
vn 0.3328 0.9216 0.1998
vn -0.5261 -0.8165 -0.2377
vn 0.1999 0.0403 -0.9790
vn 0.7137 -0.6968 0.0720
vn 0.1756 0.0186 -0.9843
vn -0.2101 0.1648 0.9637
vn 0.7203 0.6865 0.0992
vn 0.7129 -0.6992 0.0540
vn -0.1175 0.2226 0.9678
vn -0.5180 0.8547 -0.0325
vn 0.0060 0.3010 -0.9536
vn -0.7144 0.6553 0.2453
vn -0.5526 -0.6918 -0.4648
vn 0.4628 0.8225 0.3306
vn 0.0140 -0.9850 0.1717
vn -0.6689 -0.7107 -0.2181
vn -0.3765 0.0834 0.9227
vn -0.5131 0.6627 0.5454
vn -0.8395 0.2627 -0.4757
vn -0.4002 -0.8653 -0.3019
vn 0.0051 -0.8800 0.4750
vn -0.7674 -0.0281 0.6405
vn 0.6498 0.1359 0.7478
vn 0.1521 0.4204 -0.8945
vn -0.1640 -0.9795 -0.1167
vn -0.0206 -0.1062 0.9941
vn 0.8741 -0.3889 -0.2908
vn 0.4441 0.8886 -0.1148
vn 0.2585 0.1241 -0.9580
vn 0.9449 -0.3032 -0.1237
vn 0.9072 0.1521 0.3921
vn -0.6020 -0.6275 -0.4939
vn 0.2027 0.2959 0.9335
vn 0.8553 -0.5145 0.0614
vn -0.1844 -0.1190 -0.9756
vn 0.4768 0.4835 0.7341
vn -0.9706 0.0903 0.2231
vn -0.8420 0.5394 0.0119
vn 0.6197 0.0819 -0.7806
vn 0.8892 -0.3932 -0.2340
vn 0.4585 0.7298 0.5071
vn -0.5975 0.7814 -0.1802
vn -0.1880 0.5276 -0.8284
vn 0.5701 0.3981 -0.7187
vn 0.2306 0.5781 0.7827
vn -0.5288 -0.0499 -0.8473
vn 0.7292 -0.4636 -0.5033
vn 0.7307 0.6750 -0.1024
vn -0.9181 0.3201 0.2338
vn -0.0598 0.1201 0.9910
vn -0.3321 -0.8926 -0.3050
vn 0.1231 0.2135 -0.9691
vn -0.2060 -0.9434 0.2598
vn -0.4027 -0.9153 0.0075
vn -0.6276 0.7781 0.0256
vn 0.2035 0.7979 -0.5674
usemtl bark
s off
f 1//1 2//1 4//1 3//1
f 3//2 4//2 8//2 7//2
f 7//3 8//3 6//3 5//3
f 5//4 6//4 2//4 1//4
f 3//5 7//5 5//5 1//5
f 4//6 2//6 9//6 10//6
f 11//7 10//7 14//7 15//7
f 2//8 6//8 12//8 9//8
f 8//9 4//9 10//9 11//9
f 6//10 8//10 11//10 12//10
f 23//11 22//11 19//11 20//11
f 15//12 16//12 36//12 35//12
f 10//13 9//13 13//13 14//13
f 9//14 12//14 16//14 13//14
f 17//15 20//15 32//15 29//15
f 27//16 26//16 17//16 18//16
f 26//17 23//17 20//17 17//17
f 22//18 27//18 18//18 19//18
f 15//19 14//19 28//19 21//19
f 21//20 28//20 44//20 41//20
f 13//21 16//21 24//21 25//21
f 25//22 24//22 23//22 26//22
f 14//23 13//23 25//23 28//23
f 28//24 25//24 26//24 27//24
f 16//25 15//25 21//25 24//25
f 24//26 21//26 22//26 23//26
f 31//27 30//27 29//27 32//27
f 19//28 18//28 30//28 31//28
f 20//29 19//29 31//29 32//29
f 18//30 17//30 29//30 30//30
f 33//31 35//31 39//31 37//31
f 12//32 11//32 33//32 34//32
f 11//33 15//33 35//33 33//33
f 16//34 12//34 34//34 36//34
f 38//35 37//35 39//35 40//35
f 34//36 33//36 37//36 38//36
f 36//37 34//37 38//37 40//37
f 35//38 36//38 40//38 39//38
f 41//39 44//39 43//39 42//39
f 27//40 22//40 42//40 43//40
f 28//41 27//41 43//41 44//41
f 22//42 21//42 41//42 42//42
usemtl leaves
f 56//43 47//43 58//43
f 46//44 45//44 50//44
f 45//45 46//45 48//45
f 45//46 48//46 49//46
f 45//47 49//47 50//47
f 46//48 50//48 55//48
f 47//49 56//49 53//49
f 47//50 53//50 60//50
f 53//51 56//51 59//51
f 50//52 49//52 54//52
f 46//53 55//53 51//53
f 46//54 51//54 48//54
f 56//55 58//55 59//55
f 49//56 48//56 54//56
f 50//57 54//57 55//57
f 51//58 55//58 54//58
f 48//59 51//59 54//59
f 47//60 57//60 58//60
f 68//61 64//61 52//61
f 68//62 70//62 64//62
f 58//63 57//63 61//63
f 53//64 59//64 60//64
f 47//65 60//65 57//65
f 66//66 52//66 69//66
f 58//67 61//67 59//67
f 70//68 62//68 64//68
f 60//69 59//69 63//69
f 57//70 60//70 63//70
f 61//71 57//71 63//71
f 59//72 61//72 63//72
f 52//73 64//73 71//73
f 65//74 66//74 69//74
f 70//75 65//75 62//75
f 64//76 62//76 71//76
f 66//77 67//77 52//77
f 67//78 68//78 52//78
f 70//79 66//79 65//79
f 65//80 69//80 62//80
f 70//81 68//81 67//81
f 70//82 67//82 66//82
f 69//83 52//83 71//83
f 62//84 69//84 71//84
