# 3ds Max Wavefront OBJ Exporter v0.97b - (c)2007 guruware
# File Created: 29.11.2015 17:13:48

mtllib Grass_Rough_batch.mtl

#
# object Object456
#

v  -470.8939 125.0000 149.2428
v  -630.9460 125.0000 149.2428
v  -630.9460 9.1849 149.2428
v  -470.8939 9.1849 149.2428
# 4 vertices

vn 0.0000 -0.0000 1.0000
# 1 vertex normals

vt 0.9543 1.0000 0.0000
vt 0.3140 1.0000 0.0000
vt 0.3140 0.5367 0.0000
vt 0.9543 0.5367 0.0000
# 4 texture coords

g Object456
usemtl 07___Default
s 1
f 1/1/1 2/2/1 3/3/1 4/4/1 
# 1 polygons

#
# object Object457
#

v  -584.0667 6.9964 245.2906
v  -584.0667 118.7483 215.3467
v  -415.1255 118.7483 215.3467
v  -415.1255 6.9964 245.2906
# 4 vertices

vn -0.0000 -0.2588 -0.9659
# 1 vertex normals

vt 0.7355 0.0386 0.0000
vt 0.7355 0.5014 0.0000
vt 0.0597 0.5014 0.0000
vt 0.0597 0.0386 0.0000
# 4 texture coords

g Object457
usemtl 07___Default
s 1
f 5/5/2 6/6/2 7/7/2 8/8/2 
# 1 polygons

#
# object Object458
#

v  -399.4511 13.8736 201.4259
v  -399.4511 118.7280 250.3203
v  -568.3922 118.7280 250.3203
v  -568.3922 13.8736 201.4259
# 4 vertices

vn 0.0000 -0.4226 0.9063
# 1 vertex normals

vt 0.7355 0.0386 0.0000
vt 0.7355 0.5014 0.0000
vt 0.0597 0.5014 0.0000
vt 0.0597 0.0386 0.0000
# 4 texture coords

g Object458
usemtl 07___Default
s 1
f 9/9/3 10/10/3 11/11/3 12/12/3 
# 1 polygons

#
# object Object459
#

v  -399.4511 6.9964 59.7923
v  -399.4511 118.7483 29.8485
v  -568.3922 118.7483 29.8485
v  -568.3922 6.9964 59.7923
# 4 vertices

vn 0.0000 0.2588 0.9659
# 1 vertex normals

vt 0.7355 0.0386 0.0000
vt 0.7355 0.5014 0.0000
vt 0.0597 0.5014 0.0000
vt 0.0597 0.0386 0.0000
# 4 texture coords

g Object459
usemtl 07___Default
s 1
f 13/13/4 14/14/4 15/15/4 16/16/4 
# 1 polygons

#
# object Object460
#

v  -399.4511 4.8183 38.2215
v  -399.4511 118.7547 58.3116
v  -568.3922 118.7547 58.3116
v  -568.3922 4.8183 38.2215
# 4 vertices

vn 0.0000 -0.1736 0.9848
# 1 vertex normals

vt 0.7355 0.0386 0.0000
vt 0.7355 0.5014 0.0000
vt 0.0597 0.5014 0.0000
vt 0.0597 0.0386 0.0000
# 4 texture coords

g Object460
usemtl 07___Default
s 1
f 17/17/5 18/18/5 19/19/5 20/20/5 
# 1 polygons

#
# object Object461
#

v  -551.9121 9.0157 236.7352
v  -589.8773 116.1203 258.4695
v  -678.5755 113.8534 114.7039
v  -640.6104 6.7488 92.9696
# 4 vertices

vn -0.7853 -0.3779 0.4904
# 1 vertex normals

vt 0.7355 0.0386 0.0000
vt 0.7355 0.5014 0.0000
vt 0.0597 0.5014 0.0000
vt 0.0597 0.0386 0.0000
# 4 texture coords

g Object461
usemtl 07___Default
s 1
f 21/21/6 22/22/6 23/23/6 24/24/6 
# 1 polygons

#
# object Object462
#

v  -570.2299 6.5847 248.0750
v  -566.2422 122.1307 243.7928
v  -654.9404 119.8638 100.0271
v  -658.9282 4.3178 104.3093
# 4 vertices

vn -0.8504 0.0488 0.5239
# 1 vertex normals

vt 0.7355 0.0386 0.0000
vt 0.7355 0.5014 0.0000
vt 0.0597 0.5014 0.0000
vt 0.0597 0.0386 0.0000
# 4 texture coords

g Object462
usemtl 07___Default
s 1
f 25/25/7 26/26/7 27/27/7 28/28/7 
# 1 polygons

#
# object Object463
#

v  -495.1625 5.7847 52.4199
v  -440.4236 107.4967 45.8285
v  -437.3347 116.7642 214.4869
v  -492.0736 15.0523 221.0783
# 4 vertices

vn 0.8808 -0.4734 0.0099
# 1 vertex normals

vt 0.7355 0.0386 0.0000
vt 0.7355 0.5014 0.0000
vt 0.0597 0.5014 0.0000
vt 0.0597 0.0386 0.0000
# 4 texture coords

g Object463
usemtl 07___Default
s 1
f 29/29/8 30/30/8 31/31/8 32/32/8 
# 1 polygons

#
# object Object464
#

v  -473.9977 1.0864 52.2905
v  -467.4536 116.4147 45.8335
v  -464.3647 125.6823 214.4919
v  -470.9088 10.3540 220.9489
# 4 vertices

vn 0.9982 -0.0575 -0.0151
# 1 vertex normals

vt 0.7355 0.0386 0.0000
vt 0.7355 0.5014 0.0000
vt 0.0597 0.5014 0.0000
vt 0.0597 0.0386 0.0000
# 4 texture coords

g Object464
usemtl 07___Default
s 1
f 33/33/9 34/34/9 35/35/9 36/36/9 
# 1 polygons

#
# object Object465
#

v  -464.2402 113.2885 172.3225
v  -624.2923 113.2885 172.3225
v  -624.2923 8.3243 123.3769
v  -464.2402 8.3243 123.3769
# 4 vertices

vn 0.0000 -0.4226 0.9063
# 1 vertex normals

vt 0.9543 1.0000 0.0000
vt 0.3140 1.0000 0.0000
vt 0.3140 0.5367 0.0000
vt 0.9543 0.5367 0.0000
# 4 texture coords

g Object465
usemtl 07___Default
s 1
f 37/37/10 38/38/10 39/39/10 40/40/10 
# 1 polygons

#
# object Object466
#

v  -511.6530 113.2885 62.9287
v  -614.5325 113.2885 185.5357
v  -652.0270 8.3243 154.0741
v  -549.1475 8.3243 31.4670
# 4 vertices

vn 0.6943 -0.4226 0.5826
# 1 vertex normals

vt 0.9543 1.0000 0.0000
vt 0.3140 1.0000 0.0000
vt 0.3140 0.5367 0.0000
vt 0.9543 0.5367 0.0000
# 4 texture coords

g Object466
usemtl 07___Default
s 1
f 41/41/11 42/42/11 43/43/11 44/44/11 
# 1 polygons

#
# object Object467
#

v  -553.2606 126.5945 41.9525
v  -665.7639 118.5407 155.5079
v  -641.2305 6.5429 171.8707
v  -528.7272 14.5967 58.3153
# 4 vertices

vn 0.6790 0.2496 0.6904
# 1 vertex normals

vt 0.9543 1.0000 0.0000
vt 0.3140 1.0000 0.0000
vt 0.3140 0.5367 0.0000
vt 0.9543 0.5367 0.0000
# 4 texture coords

g Object467
usemtl 07___Default
s 1
f 45/45/12 46/46/12 47/47/12 48/48/12 
# 1 polygons

#
# object Object468
#

v  -578.3303 6.5847 236.5378
v  -572.7640 122.1307 238.3422
v  -479.9536 119.8638 97.1963
v  -485.5199 4.3178 95.3919
# 4 vertices

vn -0.8342 0.0488 -0.5493
# 1 vertex normals

vt 0.7355 0.0386 0.0000
vt 0.7355 0.5014 0.0000
vt 0.0597 0.5014 0.0000
vt 0.0597 0.0386 0.0000
# 4 texture coords

g Object468
usemtl 07___Default
s 1
f 49/49/13 50/50/13 51/51/13 52/52/13 
# 1 polygons

#
# object Object469
#

v  -560.3116 9.0157 248.3470
v  -596.0543 116.1203 223.1242
v  -503.2439 113.8534 81.9783
v  -467.5012 6.7488 107.2011
# 4 vertices

vn -0.7764 -0.3779 -0.5044
# 1 vertex normals

vt 0.7355 0.0386 0.0000
vt 0.7355 0.5014 0.0000
vt 0.0597 0.5014 0.0000
vt 0.0597 0.0386 0.0000
# 4 texture coords

g Object469
usemtl 07___Default
s 1
f 53/53/14 54/54/14 55/55/14 56/56/14 
# 1 polygons

#
# object Object470
#

v  -410.5856 20.1399 155.1272
v  -400.3442 120.8013 99.0245
v  -559.0969 105.8464 43.2121
v  -569.3383 5.1850 99.3148
# 4 vertices

vn -0.3304 0.4849 0.8098
# 1 vertex normals

vt 0.7355 0.0386 0.0000
vt 0.7355 0.5014 0.0000
vt 0.0597 0.5014 0.0000
vt 0.0597 0.0386 0.0000
# 4 texture coords

g Object470
usemtl 07___Default
s 1
f 57/57/15 58/58/15 59/59/15 60/60/15 
# 1 polygons

#
# object Object471
#

v  -416.9571 35.3830 169.1660
v  -391.5222 102.9032 78.7271
v  -550.2749 87.9483 22.9147
v  -575.7098 20.4281 113.3536
# 4 vertices

vn -0.2620 0.8072 0.5290
# 1 vertex normals

vt 0.7355 0.0386 0.0000
vt 0.7355 0.5014 0.0000
vt 0.0597 0.5014 0.0000
vt 0.0597 0.0386 0.0000
# 4 texture coords

g Object471
usemtl 07___Default
s 1
f 61/61/16 62/62/16 63/63/16 64/64/16 
# 1 polygons

#
# object Object472
#

v  -566.8219 124.2874 193.7238
v  -447.0414 97.1181 173.7743
v  -470.8157 24.3737 140.9038
v  -590.5962 51.5430 160.8533
# 4 vertices

vn -0.1059 0.0538 -0.9929
# 1 vertex normals

vt 0.9543 1.0000 0.0000
vt 0.3140 1.0000 0.0000
vt 0.3140 0.5367 0.0000
vt 0.9543 0.5367 0.0000
# 4 texture coords

g Object472
usemtl 07___Default
s 1
f 65/65/17 66/66/17 67/67/17 68/68/17 
# 1 polygons

#
# object Object473
#

v  -557.4348 38.5231 259.4345
v  -440.3341 26.6560 221.2472
v  -465.5662 36.6203 136.1406
v  -582.6669 48.4873 174.3278
# 4 vertices

vn 0.2975 0.9365 0.1856
# 1 vertex normals

vt 0.9543 1.0000 0.0000
vt 0.3140 1.0000 0.0000
vt 0.3140 0.5367 0.0000
vt 0.9543 0.5367 0.0000
# 4 texture coords

g Object473
usemtl 07___Default
s 1
f 69/69/18 70/70/18 71/71/18 72/72/18 
# 1 polygons

#
# object Object474
#

v  -517.9933 41.8975 78.5300
v  -631.7883 40.2226 169.8776
v  -602.9642 2.2103 207.1543
v  -489.1693 3.8852 115.8067
v  -552.0563 37.8901 38.0896
v  -665.8512 36.2152 129.4372
# 6 vertices

vn 0.1777 0.9547 0.2388
vn 0.1772 0.9549 0.2383
vn 0.3860 0.7783 0.4952
vn -0.0561 0.9971 -0.0516
# 4 vertex normals

vt 0.9543 0.7610 0.0000
vt 0.3140 0.7610 0.0000
vt 0.3140 0.5367 0.0000
vt 0.9543 0.5367 0.0000
vt 0.9543 1.0000 0.0000
vt 0.3140 1.0000 0.0000
# 6 texture coords

g Object474
usemtl 07___Default
s 1
f 73/73/19 74/74/20 75/75/21 76/76/21 
f 77/77/22 78/78/22 74/74/20 73/73/19 
# 2 polygons

#
# object Object475
#

v  -388.4877 41.8975 156.8569
v  -479.8353 40.2226 43.0619
v  -517.1120 2.2103 71.8860
v  -425.7645 3.8852 185.6809
v  -348.0474 37.8901 122.7940
v  -439.3949 36.2152 8.9990
# 6 vertices

vn -0.2388 0.9547 0.1777
vn -0.2383 0.9549 0.1772
vn -0.4952 0.7783 0.3860
vn 0.0516 0.9971 -0.0561
# 4 vertex normals

vt 0.9543 0.7610 0.0000
vt 0.3140 0.7610 0.0000
vt 0.3140 0.5367 0.0000
vt 0.9543 0.5367 0.0000
vt 0.9543 1.0000 0.0000
vt 0.3140 1.0000 0.0000
# 6 texture coords

g Object475
usemtl 07___Default
s 1
f 79/79/23 80/80/24 81/81/25 82/82/25 
f 83/83/26 84/84/26 80/80/24 79/79/23 
# 2 polygons

